<svg xmlns="http://www.w3.org/2000/svg" viewBox="0 0 512 512">
  <path fill="#3a3a3a" d="M318.913 401 203.84 334.478v73.732l38.95 22.496a24.68 24.68 0 0 0 24.687 0L318.913 401ZM162.88 384.554V248.739l-65.612 37.932v45.73a24.696 24.696 0 0 0 12.343 21.387l53.269 30.766ZM97.268 239.606l118.7-68.623-65.098-37.632-41.259 23.83a24.696 24.696 0 0 0-12.343 21.386v61.039Zm94.345-129.786 116.675 67.448v-73.435l-40.81-23.57a24.68 24.68 0 0 0-24.687 0l-51.178 29.557Zm157.635 17.67v136.584L413 227.22v-48.653a24.696 24.696 0 0 0-12.343-21.387l-51.409-29.69ZM413 274.303l-115.9 67.001 62.556 36.163 41.001-23.68A24.696 24.696 0 0 0 413 332.402v-58.098ZM203.84 225.06v62.334l52.535 30.37 51.913-30.01v-63.4l-51.614-29.838-52.834 30.544Zm92.935-194.048 133.236 76.923a82.185 82.185 0 0 1 41.093 71.174v153.848a82.185 82.185 0 0 1-41.093 71.174l-133.236 76.923a82.186 82.186 0 0 1-82.185 0L81.353 404.13a82.185 82.185 0 0 1-41.092-71.174V179.108a82.185 82.185 0 0 1 41.092-71.174L214.59 31.011a82.186 82.186 0 0 1 82.185 0Z"/>
</svg>
