<svg xmlns="http://www.w3.org/2000/svg" viewBox="0 0 48 48">
    <path fill="#fff" fill-rule="evenodd" d="M24 0c13.246 0 24 10.754 24 24S37.246 48 24 48 0 37.246 0 24 10.754 0 24 0m5.114 32h-10.23c1.092 4.92 2.882 8.228 5.116 11.488 2.388-3.482 4.082-6.82 5.114-11.488M14.8 32H5.666c2.472 5.65 7.408 9.944 13.51 11.432C17.08 39.966 15.61 36.116 14.8 32m27.534 0H33.2c-.782 3.976-2.19 7.774-4.35 11.388 6.024-1.526 11.034-5.79 13.484-11.388m-28.01-12H4.4a20.175 20.175 0 0 0 0 8h9.83a40.057 40.057 0 0 1 .094-8m15.322 0H18.352a36.032 36.032 0 0 0-.106 8h11.506a36.034 36.034 0 0 0-.106-8M43.6 20h-9.926c.296 2.656.332 5.342.096 8h9.83a20.21 20.21 0 0 0 0-8M19.288 4.542C13.134 6.006 8.154 10.314 5.666 16h9.306a40.849 40.849 0 0 1 4.316-11.458m4.71-.096c-2.178 3.54-3.82 6.906-4.926 11.554h9.854c-1.068-4.492-2.674-7.896-4.928-11.554m4.736.138A40.9 40.9 0 0 1 33.026 16h9.308c-2.464-5.632-7.524-9.916-13.6-11.416"/>
</svg>
