


<svg viewBox="0 0 60 60" xmlns="http://www.w3.org/2000/svg">
        <path fill="#000" fill-rule="evenodd" d="M30,60 C13.4314575,60 0,46.5685425 0,30 C0,13.4314575 13.4314575,0 30,0 C46.5685425,0 60,13.4314575 60,30 C60,46.5685425 46.5685425,60 30,60 Z M30,50 C32.8,50 35.4166667,49.475 37.85,48.425 C40.2833333,47.375 42.4,45.95 44.2,44.15 C46,42.35 47.4166667,40.225 48.45,37.775 C49.4833333,35.325 50,32.7 50,29.9 C50,27.1 49.4833333,24.4916667 48.45,22.075 C47.4166667,19.6583333 46,17.55 44.2,15.75 C42.4,13.95 40.2833333,12.5416667 37.85,11.525 C35.4166667,10.5083333 32.8,10 30,10 C27.2,10 24.5833333,10.5083333 22.15,11.525 C19.7166667,12.5416667 17.6,13.95 15.8,15.75 C14,17.55 12.5833333,19.6583333 11.55,22.075 C10.5166667,24.4916667 10,27.1 10,29.9 C10,32.7 10.5166667,35.325 11.55,37.775 C12.5833333,40.225 14,42.35 15.8,44.15 C17.6,45.95 19.7166667,47.375 22.15,48.425 C24.5833333,49.475 27.2,50 30,50 Z M30,47.1 C28.8333333,45.8666667 27.8583333,44.45 27.075,42.85 C26.2916667,41.25 25.6666667,39.45 25.2,37.45 L34.85,37.45 C34.35,39.5833333 33.7083333,41.425 32.925,42.975 C32.1416667,44.525 31.1666667,45.9 30,47.1 Z M25.75,46.5 C22.9166667,45.5333333 20.6666667,44.375 19,43.025 C17.3333333,41.675 15.8666667,39.8166667 14.6,37.45 L22.1,37.45 C22.5,39.2833333 23,40.9333333 23.6,42.4 C24.2,43.8666667 24.9166667,45.2333333 25.75,46.5 Z M34.3,46.45 C35.1333333,45.1833333 35.8416667,43.8166667 36.425,42.35 C37.0083333,40.8833333 37.5166667,39.25 37.95,37.45 L45.4,37.45 C44.2333333,39.6166667 42.6916667,41.4666667 40.775,43 C38.8583333,44.5333333 36.7,45.6833333 34.3,46.45 Z M13.6,34.45 C13.3666667,33.65 13.2083333,32.9083333 13.125,32.225 C13.0416667,31.5416667 13,30.7666667 13,29.9 C13,29.0333333 13.0416667,28.2833333 13.125,27.65 C13.2083333,27.0166667 13.3666667,26.3 13.6,25.5 L21.6,25.5 C21.5,26.3 21.4333333,27.025 21.4,27.675 C21.3666667,28.325 21.35,29.0666667 21.35,29.9 C21.35,30.6 21.3583333,31.3083333 21.375,32.025 C21.3916667,32.7416667 21.45,33.55 21.55,34.45 L13.6,34.45 Z M24.65,34.45 C24.5166667,33.4166667 24.4333333,32.575 24.4,31.925 C24.3666667,31.275 24.35,30.6 24.35,29.9 C24.35,29.2333333 24.3666667,28.5916667 24.4,27.975 C24.4333333,27.3583333 24.5166667,26.5333333 24.65,25.5 L35.4,25.5 C35.5333333,26.5333333 35.6166667,27.3583333 35.65,27.975 C35.6833333,28.5916667 35.7,29.2333333 35.7,29.9 C35.7,30.6 35.6833333,31.275 35.65,31.925 C35.6166667,32.575 35.5333333,33.4166667 35.4,34.45 L24.65,34.45 Z M38.4,34.45 C38.5,33.45 38.575,32.625 38.625,31.975 C38.675,31.325 38.7,30.6333333 38.7,29.9 C38.7,29.3666667 38.6833333,28.7916667 38.65,28.175 C38.6166667,27.5583333 38.55,26.6666667 38.45,25.5 L46.4,25.5 C46.6333333,26.3 46.7916667,27.0166667 46.875,27.65 C46.9583333,28.2833333 47,29.0333333 47,29.9 C47,30.7666667 46.9583333,31.5416667 46.875,32.225 C46.7916667,32.9083333 46.6333333,33.65 46.4,34.45 L38.4,34.45 Z M37.9,22.5 C37.4666667,20.6 36.9583333,18.9333333 36.375,17.5 C35.7916667,16.0666667 35.0833333,14.7333333 34.25,13.5 C36.75,14.1333333 38.9583333,15.2166667 40.875,16.75 C42.7916667,18.2833333 44.3,20.2 45.4,22.5 L37.9,22.5 Z M25.2,22.5 C25.8666667,20 26.5666667,18.0166667 27.3,16.55 C28.0333333,15.0833333 28.9333333,13.9 30,13 C31.1666667,14.2666667 32.1833333,15.725 33.05,17.375 C33.9166667,19.025 34.5333333,20.7333333 34.9,22.5 L25.2,22.5 Z M14.6,22.5 C15.7666667,20.1666667 17.2833333,18.25 19.15,16.75 C21.0166667,15.25 23.2,14.1833333 25.7,13.55 C24.8333333,14.8833333 24.1166667,16.2583333 23.55,17.675 C22.9833333,19.0916667 22.5166667,20.7 22.15,22.5 L14.6,22.5 Z" id="Combined-Shape"></path>
</svg>
