<svg viewBox="0 0 60 60" xmlns="http://www.w3.org/2000/svg">
        <path d="M30,60 C13.4314575,60 0,46.5685425 0,30 C0,13.4314575 13.4314575,0 30,0 C46.5685425,0 60,13.4314575 60,30 C60,46.5685425 46.5685425,60 30,60 Z M42.6666667,17.3333333 L17.3333333,17.3333333 C15.5916667,17.3333333 14.1825,18.7583333 14.1825,20.5 L14.1666667,39.5 C14.1666667,41.2416667 15.5916667,42.6666667 17.3333333,42.6666667 L42.6666667,42.6666667 C44.4083333,42.6666667 45.8333333,41.2416667 45.8333333,39.5 L45.8333333,20.5 C45.8333333,18.7583333 44.4083333,17.3333333 42.6666667,17.3333333 Z M42.6666667,39.5 L17.3333333,39.5 L17.3333333,23.6666667 L30,31.5833333 L42.6666667,23.6666667 L42.6666667,39.5 Z M30,28.4166667 L17.3333333,20.5 L42.6666667,20.5 L30,28.4166667 Z" id="Combined-Shape" fill="#000000"></path>
</svg>
