<svg xmlns="http://www.w3.org/2000/svg" viewBox="0 0 48 48">
    <path fill="#fff" fill-rule="nonzero" d="M24 4.326c6.408 0 7.168.024 9.7.14 6.504.296 9.542 3.382 9.838 9.838.116 2.53.138 3.29.138 9.698 0 6.41-.024 7.168-.138 9.698-.298 6.45-3.328 9.542-9.838 9.838-2.532.116-3.288.14-9.7.14-6.408 0-7.168-.024-9.698-.14-6.52-.298-9.542-3.398-9.838-9.84-.116-2.53-.14-3.288-.14-9.698 0-6.408.026-7.166.14-9.698.298-6.454 3.328-9.542 9.838-9.838 2.532-.114 3.29-.138 9.698-.138ZM24 0c-6.518 0-7.334.028-9.894.144C5.39.544.546 5.38.146 14.104.028 16.666 0 17.482 0 24c0 6.518.028 7.336.144 9.896.4 8.716 5.236 13.56 13.96 13.96 2.562.116 3.378.144 9.896.144 6.518 0 7.336-.028 9.896-.144 8.708-.4 13.564-5.236 13.958-13.96.118-2.56.146-3.378.146-9.896 0-6.518-.028-7.334-.144-9.894C47.464 5.398 42.622.546 33.898.146 31.336.028 30.518 0 24 0Zm0 11.676c-6.806 0-12.324 5.518-12.324 12.324S17.194 36.326 24 36.326 36.324 30.808 36.324 24c0-6.806-5.518-12.324-12.324-12.324ZM24 32a8 8 0 1 1 0-16 8 8 0 0 1 0 16ZM36.812 8.31a2.881 2.881 0 1 0-.002 5.762 2.881 2.881 0 0 0 .002-5.762Z"/>
</svg>
