<svg xmlns="http://www.w3.org/2000/svg" viewBox="0 0 60 60">
    <path fill="#000" fill-rule="evenodd"
          d="M583,60 C599.568543,60 613,46.5685433 613,30 C613,13.4314567 599.568543,0 583,0 C566.431457,0 553,13.4314567 553,30 C553,46.5685433 566.431457,60 583,60 L583,60 Z M595.205519,45.2549929 L570.794481,45.2549929 C570.729575,45.2445383 570.664234,45.2319056 570.599329,45.2240647 C569.25722,45.0515639 568.128996,44.0270139 567.830169,42.7053791 C567.79532,42.5511739 567.773104,42.3947906 567.745225,42.2397141 L567.745225,17.7615927 C567.755244,17.704528 567.767005,17.647899 567.774846,17.5908343 C567.967385,16.2212827 568.967541,15.1326983 570.319233,14.8247234 C570.464726,14.7916172 570.613268,14.7715792 570.760939,14.7450071 L595.239061,14.7450071 C595.29569,14.7550261 595.351883,14.7676588 595.409383,14.7750641 C596.794181,14.9645536 597.921971,16.0256947 598.188998,17.3930683 C598.215135,17.5263643 598.23343,17.6605316 598.254775,17.7942633 L598.254775,42.2057367 C598.232559,42.3416464 598.213392,42.4792986 598.187256,42.6147727 C597.943751,43.8680169 596.925735,44.9073777 595.679896,45.1717917 C595.523077,45.2057692 595.36408,45.2279852 595.205519,45.2549929 L595.205519,45.2549929 Z M571.045827,27.1158393 L571.045827,27.1981692 C571.045827,31.7132463 571.045391,36.2283235 571.046263,40.7434006 C571.046263,41.3928922 571.608632,41.9513416 572.258124,41.9513416 C579.417777,41.9517772 586.576995,41.9517772 593.736649,41.9513416 C594.392239,41.9513416 594.951559,41.3937634 594.951559,40.7394801 C594.951995,36.2296303 594.951559,31.7202161 594.951559,27.2108018 L594.951559,27.1171461 L592.039084,27.1171461 C592.450298,28.4313755 592.576625,29.7682565 592.41545,31.1308384 C592.253403,32.4938559 591.81431,33.7623465 591.099042,34.9336964 C590.383338,36.1063532 589.455493,37.0777591 588.319427,37.8509633 C585.374717,39.8565027 581.497806,40.0329239 578.373189,38.279166 C576.793675,37.3935749 575.553499,36.1586262 574.688817,34.5673501 C573.398981,32.1928508 573.192939,29.7007373 573.94959,27.1149681 C572.983411,27.1158393 572.021153,27.1158393 571.045827,27.1158393 L571.045827,27.1158393 L571.045827,27.1158393 Z M583.000218,23.8174154 C579.616415,23.8152373 576.86555,26.5377875 576.818069,29.9063443 C576.769281,33.3655076 579.538441,36.10766 582.85821,36.1790998 C586.312581,36.2531531 589.106571,33.4931407 589.179318,30.1363453 C589.253807,26.6745684 586.461559,23.8152373 583.000218,23.8174154 L583.000218,23.8174154 L583.000218,23.8174154 Z M592.271263,22.5781106 L592.271263,22.5724477 C592.773084,22.5724477 593.276647,22.582031 593.778903,22.569834 C594.424909,22.5537165 594.951124,22.0000587 594.951124,21.3531808 C594.951559,20.3900515 594.951559,19.4264865 594.951124,18.4633572 C594.951124,17.7724829 594.404436,17.2227456 593.714433,17.2223099 C592.753917,17.2218743 591.793401,17.2214387 590.83245,17.2223099 C590.144189,17.2231812 589.595759,17.7742253 589.595323,18.4650996 C589.594888,19.4199524 589.592274,20.3748052 589.598808,21.3300936 C589.599679,21.4725374 589.626687,21.6206441 589.67199,21.7556826 C589.844491,22.2640372 590.310156,22.5759325 590.880367,22.5785462 C591.343854,22.5794174 591.807341,22.5781106 592.271263,22.5781106 L592.271263,22.5781106 L592.271263,22.5781106 Z" transform="translate(-553)"/>
</svg>
