<svg xmlns="http://www.w3.org/2000/svg" viewBox="0 0 60 60">
    <path fill="#000" fill-rule="evenodd"
          d="M109,60 C125.568543,60 139,46.5685433 139,30 C139,13.4314567 125.568543,0 109,0 C92.4314567,0 79,13.4314567 79,30 C79,46.5685433 92.4314567,60 109,60 L109,60 Z M104.765217,46.3196729 L104.765217,29.998726 L101.396245,29.998726 L101.396245,24.3742179 L104.765217,24.3742179 L104.765217,20.9972835 C104.765217,16.4088187 106.667549,13.6803271 112.0723,13.6803271 L116.571907,13.6803271 L116.571907,19.3054722 L113.759334,19.3054722 C111.655398,19.3054722 111.516219,20.091502 111.516219,21.5584604 L111.508575,24.3735809 L116.603755,24.3735809 L116.007545,29.9980891 L111.508575,29.9980891 L111.508575,46.3196729 L104.765217,46.3196729 L104.765217,46.3196729 Z" transform="translate(-79)"/>
</svg>
